<svg xmlns="http://www.w3.org/2000/svg" xmlns:xlink="http://www.w3.org/1999/xlink" version="1.1" width="256" height="256" viewBox="0 0 256 256" xml:space="preserve">
<desc>Created with Fabric.js 1.7.22</desc>
<defs>
</defs>
<g transform="translate(128 128) scale(0.72 0.72)" style="">
	<g style="stroke: none; stroke-width: 0; stroke-dasharray: none; stroke-linecap: butt; stroke-linejoin: miter; stroke-miterlimit: 10; fill: none; fill-rule: nonzero; opacity: 1;" transform="translate(-175.05 -175.05000000000004) scale(3.89 3.89)" >
	<path d="M 2.192 90 c -0.527 0 -1.042 -0.209 -1.422 -0.594 c -0.502 -0.508 -0.696 -1.245 -0.507 -1.935 l 5.831 -21.287 C 2.468 59.618 0.555 52.195 0.55 44.657 c 0 -0.015 0 -0.03 0 -0.045 C 0.56 20.013 20.581 0 45.179 0 c 11.931 0.005 23.142 4.652 31.57 13.084 c 8.426 8.434 13.063 19.644 13.06 31.563 c -0.012 24.601 -20.032 44.615 -44.629 44.615 c -7.191 -0.003 -14.303 -1.748 -20.639 -5.056 L 2.699 89.935 C 2.531 89.979 2.361 90 2.192 90 z M 24.791 80.074 c 0.332 0 0.662 0.083 0.958 0.244 c 5.926 3.231 12.64 4.941 19.414 4.944 c 22.41 0 40.637 -18.221 40.646 -40.616 c 0.004 -10.852 -4.219 -21.057 -11.89 -28.735 C 66.247 8.235 56.04 4.005 45.178 4 C 22.799 4 4.581 22.196 4.549 44.572 c 0 0.015 0 0.029 0 0.043 C 4.547 51.749 6.422 58.77 9.972 64.919 c 0.267 0.463 0.338 1.013 0.197 1.528 L 5.036 85.187 l 19.247 -5.047 C 24.45 80.096 24.621 80.074 24.791 80.074 z" style="stroke: none; stroke-width: 1; stroke-dasharray: none; stroke-linecap: butt; stroke-linejoin: miter; stroke-miterlimit: 10; fill: rgb(0,0,0); fill-rule: nonzero; opacity: 1;" transform=" matrix(1 0 0 1 0 0) " stroke-linecap="round" />
	<path d="M 56.645 67.087 c -1.983 0 -5.031 -0.508 -11.316 -2.986 c -6.823 -2.69 -13.531 -8.545 -18.89 -16.485 c -0.083 -0.122 -0.142 -0.211 -0.177 -0.261 c -1.432 -1.915 -4.743 -6.914 -4.743 -12.208 c 0 -5.696 2.846 -8.731 4.062 -10.027 l 0.192 -0.207 c 1.637 -1.788 3.563 -1.981 4.315 -1.981 h 0.135 c 0.694 0.006 1.385 0 1.993 0.027 c 1.396 0.057 2.983 0.459 4.134 3.018 c 0.008 0.017 0.015 0.034 0.022 0.051 c 0.562 1.255 1.468 3.488 2.198 5.286 c 0.435 1.072 0.928 2.287 1.032 2.504 c 0.631 1.264 0.661 2.493 0.084 3.646 l -0.143 0.289 c -0.295 0.602 -0.574 1.171 -1.189 1.892 c -0.172 0.2 -0.347 0.414 -0.522 0.626 c -0.392 0.476 -0.796 0.969 -1.185 1.356 c 0 0 0 0 0 0 c 0.854 1.427 2.741 4.289 5.377 6.639 c 3.162 2.819 5.869 3.994 7.324 4.626 c 0.336 0.146 0.607 0.266 0.808 0.365 c 0.02 0.01 0.038 0.019 0.055 0.027 c 0.938 -1.08 2.528 -2.987 3.063 -3.79 c 1.627 -2.44 3.893 -1.615 4.746 -1.304 c 1.245 0.453 7.427 3.524 7.487 3.555 l 0.555 0.271 c 0.958 0.463 1.786 0.862 2.309 1.732 c 0.844 1.415 0.356 4.498 -0.453 6.766 c -1.172 3.286 -6.202 6.138 -8.892 6.383 c -0.171 0.015 -0.34 0.035 -0.514 0.056 C 57.962 67.018 57.375 67.087 56.645 67.087 z M 30.408 26.932 c -0.062 0 -0.124 0 -0.185 0 h -0.136 c -0.174 0 -0.785 0.049 -1.365 0.683 l -0.225 0.241 c -1.042 1.11 -2.979 3.178 -2.979 7.292 c 0 4.208 3.014 8.565 3.938 9.801 c 0.062 0.082 0.159 0.223 0.299 0.431 c 4.911 7.277 10.962 12.604 17.041 15.001 c 7.665 3.022 9.653 2.792 11.247 2.601 c 0.21 -0.024 0.414 -0.048 0.619 -0.067 c 1.455 -0.132 4.938 -2.2 5.487 -3.743 c 0.519 -1.452 0.656 -2.674 0.662 -3.312 c -0.151 -0.076 -0.33 -0.163 -0.488 -0.239 l -0.604 -0.295 c -1.717 -0.857 -6.319 -3.102 -7.069 -3.375 c -0.063 -0.022 -0.119 -0.043 -0.169 -0.06 c -1.005 1.439 -3.384 4.177 -3.409 4.204 c -0.858 0.983 -2.37 1.91 -4.709 0.74 c -0.15 -0.075 -0.356 -0.163 -0.608 -0.272 c -1.542 -0.669 -4.751 -2.063 -8.393 -5.309 c -3.27 -2.916 -5.511 -6.47 -6.323 -7.862 c -1.409 -2.416 0.243 -4.059 0.786 -4.599 c 0.247 -0.246 0.588 -0.661 0.917 -1.062 c 0.193 -0.235 0.386 -0.469 0.572 -0.687 c 0.285 -0.334 0.395 -0.559 0.636 -1.051 l 0.129 -0.262 c -0.012 -0.03 -0.031 -0.074 -0.061 -0.135 c -0.136 -0.271 -0.409 -0.939 -1.156 -2.779 c -0.728 -1.792 -1.633 -4.023 -2.163 -5.201 c -0.006 -0.014 -0.012 -0.027 -0.018 -0.041 c -0.233 -0.505 -0.388 -0.632 -0.39 -0.633 c 0.022 0.022 -0.139 0.016 -0.246 0.012 C 31.542 26.933 30.979 26.932 30.408 26.932 z" style="stroke: none; stroke-width: 1; stroke-dasharray: none; stroke-linecap: butt; stroke-linejoin: miter; stroke-miterlimit: 10; fill: rgb(0,0,0); fill-rule: nonzero; opacity: 1;" transform=" matrix(1 0 0 1 0 0) " stroke-linecap="round" />
</g>
</g>
</svg>